<svg xmlns="http://www.w3.org/2000/svg" viewBox="0 0 284.3 125.42"><defs><style>.cls-1,.cls-2{fill:#e4e6ed;}.cls-2{font-size:47px;font-family:Larsseit-Bold, Larsseit;font-weight:700;letter-spacing:-0.06em;}.cls-3{letter-spacing:-0.04em;}.cls-4{letter-spacing:-0.05em;}.cls-5{letter-spacing:-0.04em;}</style></defs><title>centLG</title><g id="Layer_2" data-name="Layer 2"><g id="Layer_1-2" data-name="Layer 1"><path class="cls-1" d="M126.05,48.76,115.9,58.84a34.44,34.44,0,0,1-10.08-24.29q0-.43,0-.86c0-.22,0-.43,0-.65s0-.17,0-.25V32.7c0-.11,0-.23,0-.34s0-.36,0-.54l0-.36,0-.41V31l0-.38,0-.37q0-.36.1-.72l.05-.35a34.36,34.36,0,0,1,5.84-14.36A35.07,35.07,0,0,1,116,10.2l9.94,9.91a20.44,20.44,0,0,0,.15,28.65Z"/><path class="cls-1" d="M158,4.86A34.56,34.56,0,0,0,140.37,0a34.12,34.12,0,0,0-14.95,3.44A35.11,35.11,0,0,0,112.09,14.8l11.09,8.79a20.45,20.45,0,0,1,27.74-6.84,7,7,0,0,0,8.43-1h0A6.92,6.92,0,0,0,158,4.86Z"/><path class="cls-1" d="M140.52,68.88a34.78,34.78,0,0,1-24.62-10l10.15-10.07a20.45,20.45,0,0,0,25,3.37,7,7,0,0,1,8.43,1h0A6.92,6.92,0,0,1,158.19,64,34.56,34.56,0,0,1,140.52,68.88Z"/><path class="cls-1" d="M140.48,19.94a14.46,14.46,0,1,0,14.46,14.46A14.46,14.46,0,0,0,140.48,19.94Zm.15,21.49a7.06,7.06,0,1,1,6.74-7.05A6.9,6.9,0,0,1,140.63,41.43Z"/><text></text><g id="_Group_" data-name="&lt;Group&gt;"><g id="_Group_2" data-name="&lt;Group&gt;"><text class="cls-2" transform="translate(0 111.13)">c<tspan class="cls-3" x="23.36" y="0">ha</tspan><tspan class="cls-4" x="74.16" y="0">r</tspan><tspan class="cls-3" x="88.92" y="0">acte</tspan><tspan class="cls-5" x="179.82" y="0">r</tspan><tspan class="cls-3" x="195.19" y="0">wise</tspan></text></g></g></g></g></svg>