<svg xmlns="http://www.w3.org/2000/svg" viewBox="0 0 60.72 57.57"><defs><style>.cls-1{fill:#644c78;}</style></defs><title>iconLogo P</title><g id="Layer_2" data-name="Layer 2"><g id="Layer_1-2" data-name="Layer 1"><path class="cls-1" d="M16.91,40.76,8.42,49.18A28.78,28.78,0,0,1,0,28.88q0-.36,0-.72c0-.18,0-.36,0-.54s0-.14,0-.21v-.08c0-.09,0-.19,0-.28s0-.3,0-.45l0-.3,0-.34V25.9l0-.32,0-.31q0-.3.08-.61l0-.29a28.72,28.72,0,0,1,4.88-12A29.32,29.32,0,0,1,8.47,8.53l8.31,8.29a17.08,17.08,0,0,0,.13,23.94Z"/><path class="cls-1" d="M43.64,4.06A28.88,28.88,0,0,0,28.88,0a28.52,28.52,0,0,0-12.5,2.88,29.35,29.35,0,0,0-11.14,9.5l9.27,7.34A17.09,17.09,0,0,1,37.7,14a5.81,5.81,0,0,0,7-.85h0A5.78,5.78,0,0,0,43.64,4.06Z"/><path class="cls-1" d="M29,57.57a29.07,29.07,0,0,1-20.58-8.4l8.48-8.42a17.09,17.09,0,0,0,20.92,2.82,5.81,5.81,0,0,1,7,.85h0a5.78,5.78,0,0,1-1.12,9.08A28.88,28.88,0,0,1,29,57.57Z"/><path class="cls-1" d="M29,16.67A12.09,12.09,0,1,0,41.06,28.76,12.09,12.09,0,0,0,29,16.67Zm.12,18a5.9,5.9,0,1,1,5.63-5.9A5.77,5.77,0,0,1,29.09,34.63Z"/><text></text></g></g></svg>