<svg xmlns="http://www.w3.org/2000/svg" viewBox="0 0 18.83 28"><defs><style>.cls-1{fill:#171b1e;}</style></defs><title>build</title><g id="Layer_2" data-name="Layer 2"><g id="Layer_1-2" data-name="Layer 1"><path class="cls-1" d="M18.32,2.87a1.79,1.79,0,0,0-1.22-.51h-5V1a.93.93,0,0,0-.24-.68.91.91,0,0,0-.6-.28H7.64A1,1,0,0,0,7,.27.87.87,0,0,0,6.72,1v1.4H1.8a1.91,1.91,0,0,0-1.25.51A1.68,1.68,0,0,0,0,4.1V8.63a2.17,2.17,0,0,0,2,2.12H6.72l0,4.9-.62,8.79h0A3.57,3.57,0,0,0,7,26.95,3.34,3.34,0,0,0,9.45,28a3.28,3.28,0,0,0,2.44-1.05,3.55,3.55,0,0,0,.89-2.49h0l-.64-8.79v-4.9h4.77a1.93,1.93,0,0,0,1.36-.67,2.22,2.22,0,0,0,.55-1.45V4.1A1.73,1.73,0,0,0,18.32,2.87ZM8.4,1.59a.13.13,0,0,1,0,0V1.34h2v.21s0,0,0,0c0,.21,0,.42,0,.42H8.39S8.39,1.8,8.4,1.59ZM10.66,25.8a1.66,1.66,0,0,1-2.43,0,1.67,1.67,0,0,1-.49-1.25l.62-8.91,0,0V10.76h2v4.87l0,0,.64,8.91A1.64,1.64,0,0,1,10.66,25.8ZM17.48,8.55c0,.37-.32.53-.65.53H2.07c-.35,0-.72-.18-.72-.53V4.37a.77.77,0,0,1,.72-.67H16.83a.69.69,0,0,1,.65.67Z"/></g></g></svg>