<svg xmlns="http://www.w3.org/2000/svg" viewBox="0 0 28 15.04"><defs><style>.cls-1{fill:#171b1e;}</style></defs><title>enterprise</title><g id="Layer_2" data-name="Layer 2"><g id="Layer_1-2" data-name="Layer 1"><path class="cls-1" d="M8.86,7.48A6.78,6.78,0,0,1,10,3.71a.26.26,0,0,0-.08-.36H10C7.2,1.73,3.41,0,2.27,0c-3,0-3,15,0,15C3.41,15,7.2,13.3,9.95,11.7h0a.33.33,0,0,0,.09-.47A6.79,6.79,0,0,1,8.86,7.48Zm-6.52,6.1A5.56,5.56,0,0,1,1.7,11.7a21.8,21.8,0,0,1-.37-4.18A21.8,21.8,0,0,1,1.7,3.34a5.56,5.56,0,0,1,.64-1.88A10.26,10.26,0,0,1,5,2.38c.92.42,2,1.14,3.18,1.8a8.2,8.2,0,0,0-.73,3H5.58c-.35,0-.64,0-.64.38s.29.38.64.38H7.44a8,8,0,0,0,.76,3C4.51,13,2.93,13.5,2.34,13.58Z"/><path class="cls-1" d="M25.73,0a58.29,58.29,0,0,0-7.59,3.35h.06a.32.32,0,0,0-.07.45,6.79,6.79,0,0,1,1.09,3.6s0,0,0,.05,0,0,0,.06a6.78,6.78,0,0,1-1.07,3.63.39.39,0,0,0,.13.55h-.13C20.91,13.3,24.59,15,25.73,15,28.76,15,28.76,0,25.73,0Zm.71,11.7a5.57,5.57,0,0,1-.64,1.88,10.13,10.13,0,0,1-2.62-.92c-.93-.43-2-1.1-3.27-1.8a8,8,0,0,0,.75-3H22.4c.35,0,.64,0,.64-.38s-.29-.38-.64-.38H20.66a8.11,8.11,0,0,0-.71-2.93c3.69-2.08,5.27-2.6,5.86-2.67a5.2,5.2,0,0,1,.64,1.84,21.58,21.58,0,0,1,.37,4.16A21.58,21.58,0,0,1,26.44,11.7Z"/><path class="cls-1" d="M14.07,3.51a4,4,0,1,0,4,4A4,4,0,0,0,14.07,3.51Zm0,6.5A2.53,2.53,0,1,1,16.6,7.48,2.53,2.53,0,0,1,14.07,10Z"/></g></g></svg>