<svg xmlns="http://www.w3.org/2000/svg" viewBox="0 0 28 22.86"><defs><style>.cls-1{fill:#171b1e;}</style></defs><title>family</title><g id="Layer_2" data-name="Layer 2"><g id="Layer_1-2" data-name="Layer 1"><path class="cls-1" d="M27.42,5.51a9.32,9.32,0,0,0-1.64-2.77,8,8,0,0,0-2.53-2A7.3,7.3,0,0,0,20,0a7,7,0,0,0-5.58,2.59l-.18.21L14,3.09l-.24-.29-.18-.21A7,7,0,0,0,8,0,7.29,7.29,0,0,0,4.74.76a8,8,0,0,0-2.53,2A9.33,9.33,0,0,0,.58,5.51,8.92,8.92,0,0,0,0,8.61a7.09,7.09,0,0,0,1.3,3.74,21.94,21.94,0,0,0,4,4.4,60.71,60.71,0,0,0,7.59,5.53h0l.68.44a.82.82,0,0,0,.92,0l.68-.44h0a60.71,60.71,0,0,0,7.59-5.53,21.94,21.94,0,0,0,4-4.4A7.09,7.09,0,0,0,28,8.61,8.92,8.92,0,0,0,27.42,5.51Zm-2.07,5.94a18,18,0,0,1-3,3.3,83.4,83.4,0,0,1-7.48,5.75l-.34.24-.23.17-.13.09-.18.13L13.82,21l-.13-.09-.54-.39h0a83.37,83.37,0,0,1-7.49-5.76,18,18,0,0,1-3-3.3,5.21,5.21,0,0,1-1-2.84A7.75,7.75,0,0,1,3.24,4a6.34,6.34,0,0,1,2-1.72,5.75,5.75,0,0,1,8,2.76l0,0h0c0,.3.43.13.75.13h0c.32,0,.64,0,.76-.34A5.66,5.66,0,0,1,20,1.54a5.79,5.79,0,0,1,2.76.73,6.42,6.42,0,0,1,2,1.74,7.78,7.78,0,0,1,1.61,4.59A5.22,5.22,0,0,1,25.35,11.45Z"/></g></g></svg>