<svg xmlns="http://www.w3.org/2000/svg" viewBox="0 0 28 20.82"><defs><style>.cls-1{fill:#010101;}</style></defs><title>guide</title><g id="Layer_2" data-name="Layer 2"><g id="Layer_1-2" data-name="Layer 1"><path class="cls-1" d="M27.65,2.49A8.75,8.75,0,0,0,24.56.62,11.15,11.15,0,0,0,20.79,0,17.73,17.73,0,0,0,14,1.52,17.69,17.69,0,0,0,7.26,0,9.55,9.55,0,0,0,.5,2.49C.34,2.63,0,2.83,0,3v17c0,.31.44.58.72.7a1.48,1.48,0,0,0,.43.06.59.59,0,0,0,.43-.17l.08,0C3,19.29,4.8,19,7.24,19a22.77,22.77,0,0,1,6.43,1h0l.13,0s0,.31,0,.31.1.31.15.31h0s.1-.3.15-.31,0-.15,0-.16.08-.1.13-.12,0,0,0,0a22.37,22.37,0,0,1,6.42-1c2.46,0,4.37.26,5.73,1.56a.75.75,0,0,0,.53.21,1.37,1.37,0,0,0,.41-.06.88.88,0,0,0,.57-.7V3C28,2.83,27.8,2.63,27.65,2.49ZM13,18.7a18.15,18.15,0,0,0-6.32-1.2A12.25,12.25,0,0,0,1,19V3.37A10,10,0,0,1,6.68,1.52,18.2,18.2,0,0,1,13,2.85ZM27,19a15.74,15.74,0,0,0-6.52-1.46A25.92,25.92,0,0,0,14,18.7V2.85a19.28,19.28,0,0,1,6.48-1.32A12.76,12.76,0,0,1,27,3.37Z"/></g></g></svg>