<svg xmlns="http://www.w3.org/2000/svg" viewBox="0 0 28 28"><defs><style>.cls-1{fill:#171b1e;}</style></defs><title>humanity</title><g id="Layer_2" data-name="Layer 2"><g id="Layer_1-2" data-name="Layer 1"><path class="cls-1" d="M2.25,17.4H6.07a3.33,3.33,0,0,0,3-4.86h.9a3.44,3.44,0,0,0,3.33-3.46A3.23,3.23,0,0,0,9.93,5.87H5A12.28,12.28,0,0,1,14,1.8,12.23,12.23,0,0,1,24.76,8.24H21.89a3.33,3.33,0,0,0-3,4.86H17.22a3.33,3.33,0,1,0,0,6.67h1a1.53,1.53,0,0,1,0,3.06h-.12A3.35,3.35,0,0,0,15,26.16c-.33,0-.65,0-1,0A12.11,12.11,0,0,1,2.25,17.4Zm3.82-4.86a1.53,1.53,0,1,1,0,3.06H1.89v0c0-.21,0-.42-.06-.62v-.11q0-.35,0-.7h0A16.16,16.16,0,0,1,3.61,7.75l0-.08H9.93a1.43,1.43,0,0,1,1.53,1.41,1.64,1.64,0,0,1-1.53,1.66H6.07a.9.9,0,0,0,0,1.8Zm20.11,2c0,.09,0,.18,0,.26s0,.19,0,.28,0,.25,0,.37,0,.09,0,.13a12.33,12.33,0,0,1-7.71,9.76l-.1,0-.29.1-.26.09-.23.07-.33.09-.2.05-.14,0a1.55,1.55,0,0,1,1.51-1.24h.09A3.33,3.33,0,0,0,18.22,18h-1a1.53,1.53,0,1,1,0-3.06h4.67a.9.9,0,1,0,0-1.8,1.53,1.53,0,0,1,0-3.06h3.64a14,14,0,0,1,.67,4C26.2,14.19,26.19,14.38,26.19,14.57Zm1.75.74c0-.09,0-.19,0-.28s0-.24,0-.36,0-.45,0-.67h0A14,14,0,0,0,14,0,14.11,14.11,0,0,0,2.45,6.22l0,0c-.13.19-.26.4-.38.6a13.48,13.48,0,0,0-2,7S0,14,0,14c0,.22,0,.44,0,.66s0,.28,0,.42l0,.22c0,.18,0,.36.06.54v.09q0,.29.09.58v0h0A13.71,13.71,0,0,0,14,28a13.92,13.92,0,0,0,2.15-.17h0l.65-.12.1,0,.54-.12.27-.07.35-.1.37-.12.22-.08.46-.17.1,0a14,14,0,0,0,8.64-11.07v-.09C27.9,15.66,27.92,15.49,27.94,15.31Z"/></g></g></svg>