<svg xmlns="http://www.w3.org/2000/svg" viewBox="0 0 23.66 29"><defs><style>.cls-1{fill:#161a1e;}</style></defs><title>logo</title><g id="Layer_2" data-name="Layer 2"><g id="Layer_1-2" data-name="Layer 1"><path class="cls-1" d="M22.68,21.76l-.35.35.35-.36a3.33,3.33,0,0,0-4-.49A7.85,7.85,0,1,1,10.71,7.71a7.73,7.73,0,0,1,2-.8,7.89,7.89,0,0,1,5.91.83,3.33,3.33,0,0,0,4-.49A3.31,3.31,0,0,0,22,2a14.56,14.56,0,0,0-7.44-2A14.29,14.29,0,0,0,8.25,1.45a14.66,14.66,0,0,0-1.8,1A14.75,14.75,0,0,0,2.64,6.23a14.54,14.54,0,0,0-2.46,6L0,14.54A14.44,14.44,0,0,0,4.24,24.77,14.7,14.7,0,0,0,14.61,29,14.55,14.55,0,0,0,22,27a3.31,3.31,0,0,0,.64-5.2Zm0,2.63a2.3,2.3,0,0,1-1.12,1.71A13.55,13.55,0,0,1,14.61,28,13.69,13.69,0,0,1,5,24.06a13.45,13.45,0,0,1-4-9.52l.17-2.11A13.54,13.54,0,0,1,3.46,6.81,13.73,13.73,0,0,1,8.69,2.35,13.29,13.29,0,0,1,14.54,1a13.55,13.55,0,0,1,6.92,1.9,2.31,2.31,0,0,1,.44,3.63,2.33,2.33,0,0,1-2.82.34,8.91,8.91,0,0,0-6.67-.94,8.74,8.74,0,0,0-2.22.91,8.86,8.86,0,0,0-3.07,3,8.86,8.86,0,0,0,12,12.3,2.34,2.34,0,0,1,2.83.34A2.3,2.3,0,0,1,22.64,24.39Z"/><path class="cls-1" d="M14.59,8.11A6.38,6.38,0,1,0,21,14.49,6.39,6.39,0,0,0,14.59,8.11Zm0,11.76A5.38,5.38,0,1,1,20,14.49,5.39,5.39,0,0,1,14.59,19.87Z"/><path class="cls-1" d="M14.65,11.11a3.37,3.37,0,1,0,3.24,3.37A3.31,3.31,0,0,0,14.65,11.11Zm0,5.73a2.37,2.37,0,1,1,2.24-2.37A2.31,2.31,0,0,1,14.65,16.84Z"/></g></g></svg>