<svg xmlns="http://www.w3.org/2000/svg" viewBox="0 0 9.45 28"><defs><style>.cls-1{fill:#171b1e;}</style></defs><title>measure_vertical</title><g id="Layer_2" data-name="Layer 2"><g id="Layer_1-2" data-name="Layer 1"><path class="cls-1" d="M0,1.92V26c0,1.29.58,2,1.86,2H7.15c1.27,0,2.3-.67,2.3-2V1.92c0-.16-.17-.24-.18-.3A1.88,1.88,0,0,0,7.15,0H1.86C.58,0,0,.65,0,1.92Zm7.15-.47A1.55,1.55,0,0,1,8,1.75V3.64H6.22a.71.71,0,0,0-.73.71.74.74,0,0,0,.21.53.72.72,0,0,0,.52.21H8V6.18H5.72s-.59-.08-.82.14a.62.62,0,0,0-.21.47.83.83,0,0,0,.21.56,1.65,1.65,0,0,0,.82.28H8v.73H6.22a.74.74,0,0,0-.51.25.75.75,0,0,0-.22.53.66.66,0,0,0,.21.5.69.69,0,0,0,.52.18H8v1.09H6.6s-.67,0-.9.19a.68.68,0,0,0-.21.5.74.74,0,0,0,.21.53,1.73,1.73,0,0,0,.9.24H8v1.09H5.72c-.06,0-.61-.1-.82.11a.62.62,0,0,0-.21.48.88.88,0,0,0,.21.58,1.66,1.66,0,0,0,.82.28H8v.73H6.22a.77.77,0,0,0-.73.76.66.66,0,0,0,.21.49.68.68,0,0,0,.52.21H8v1.09H6.22a.64.64,0,0,0-.73.66.78.78,0,0,0,.21.55.75.75,0,0,0,.52.25H8v.73H5.72a1.72,1.72,0,0,0-.82.28.78.78,0,0,0-.21.54,1.05,1.05,0,0,0,.21.65,1.88,1.88,0,0,0,.82.34H8v.73H6.22a.7.7,0,0,0-.51.21.72.72,0,0,0-.22.53.74.74,0,0,0,.73.72H8V26c0,.44-.53.5-.85.5H1.86c-.38,0-.4-.12-.4-.5V1.79c0-.2.07-.33.27-.33Z"/></g></g></svg>