<svg xmlns="http://www.w3.org/2000/svg" viewBox="0 0 28 9.45"><defs><style>.cls-1{fill:#171b1e;}</style></defs><title>Measure</title><g id="Layer_2" data-name="Layer 2"><g id="Layer_1-2" data-name="Layer 1"><path class="cls-1" d="M26.08,0H2C.67,0,0,.58,0,1.86V7.15c0,1.27.67,2.3,2,2.3H26.08c.16,0,.24-.17.3-.18A1.88,1.88,0,0,0,28,7.15V1.86C28,.58,27.35,0,26.08,0Zm.47,7.15a1.55,1.55,0,0,1-.29.85H24.36V6.22a.71.71,0,0,0-.71-.73.74.74,0,0,0-.53.21.72.72,0,0,0-.21.52V8H21.82V5.72s.08-.59-.14-.82a.62.62,0,0,0-.47-.21.83.83,0,0,0-.56.21,1.65,1.65,0,0,0-.28.82V8h-.73V6.22a.74.74,0,0,0-.25-.51.75.75,0,0,0-.53-.22.66.66,0,0,0-.5.21.69.69,0,0,0-.18.52V8H17.09V6.6s0-.67-.19-.9a.68.68,0,0,0-.5-.21.74.74,0,0,0-.53.21,1.73,1.73,0,0,0-.24.9V8H14.55V5.72c0-.06.1-.61-.11-.82A.62.62,0,0,0,14,4.69a.88.88,0,0,0-.58.21,1.66,1.66,0,0,0-.28.82V8h-.73V6.22a.77.77,0,0,0-.76-.73.66.66,0,0,0-.49.21.68.68,0,0,0-.21.52V8H9.82V6.22a.64.64,0,0,0-.66-.73.78.78,0,0,0-.55.21.75.75,0,0,0-.25.52V8H7.64V5.72a1.72,1.72,0,0,0-.28-.82.78.78,0,0,0-.54-.21,1.05,1.05,0,0,0-.65.21,1.88,1.88,0,0,0-.34.82V8H5.09V6.22a.7.7,0,0,0-.21-.51.72.72,0,0,0-.53-.22.74.74,0,0,0-.72.73V8H2c-.44,0-.5-.53-.5-.85V1.86c0-.38.12-.4.5-.4H26.21c.2,0,.33.07.33.27Z"/></g></g></svg>