<svg xmlns="http://www.w3.org/2000/svg" viewBox="0 0 26.58 28"><defs><style>.cls-1{fill:#161a1e;}.cls-2{fill:#eeca3f;}</style></defs><title>iconColor_outreach</title><g id="Layer_2" data-name="Layer 2"><g id="Layer_1-2" data-name="Layer 1"><path class="cls-1" d="M24.67,7.44H16.3V1.66C16.3.67,15.2,0,14.21,0H12a1.66,1.66,0,0,0-1.76,1.66V7.44H1.6A1.62,1.62,0,0,0,0,9.2v2.3a1.82,1.82,0,0,0,1.6,2h8.68V26A2,2,0,0,0,12,28h2.17a2.26,2.26,0,0,0,2.09-2V13.47h8.37a2.08,2.08,0,0,0,1.91-2V9.2A1.89,1.89,0,0,0,24.67,7.44Z"/><path class="cls-2" d="M25.16,11.5c0,.19-.31.55-.5.55H14.89V26c0,.2-.47.58-.68.58H12c-.21,0-.34-.37-.34-.58v-14H1.6c-.19,0-.18-.36-.18-.55V9.2c0-.19,0-.34.18-.34H11.7V1.66c0-.21.14-.24.34-.24h2.17c.2,0,.68,0,.68.24v7.2h9.78c.19,0,.5.15.5.34Z"/></g></g></svg>