<svg xmlns="http://www.w3.org/2000/svg" viewBox="0 0 23.66 29"><defs><style>.cls-1{fill:#4fbfa8;}.cls-2{fill:#f99e20;}.cls-3{fill:#654d79;}.cls-4{fill:#161a1e;}</style></defs><title>iconColor_Logo</title><g id="Layer_2" data-name="Layer 2"><g id="Layer_1-2" data-name="Layer 1"><polygon class="cls-1" points="20.89 26.93 20.9 26.93 20.89 26.93 20.89 26.93"/><circle class="cls-1" cx="20.9" cy="26.93" transform="translate(-8.48 9.64) rotate(-21.71)"/><polygon class="cls-1" points="21.82 26.41 21.82 26.41 21.81 26.42 21.81 26.42 21.81 26.41 21.82 26.41"/><polygon class="cls-1" points="21.91 26.37 21.91 26.37 21.91 26.37 21.91 26.37"/><path class="cls-1" d="M22,26.31h0s0,0,0,0Zm-.08.06h0Z"/><path class="cls-1" d="M22.27,26.13h0Z"/><polygon class="cls-1" points="23.11 25.52 23.11 25.52 23.1 25.52 23.11 25.52"/><path class="cls-1" d="M23.19,25.46h0Z"/><polygon class="cls-2" points="20.89 26.93 20.9 26.93 20.89 26.93 20.89 26.93"/><circle class="cls-2" cx="20.9" cy="26.93" transform="translate(-8.48 9.64) rotate(-21.71)"/><path class="cls-2" d="M21.33,26.7l0,0,0,0Z"/><path class="cls-2" d="M21.92,26.35h0Z"/><path class="cls-2" d="M22.5,26l0,0h0l0,0Z"/><path class="cls-2" d="M22.63,25.87h0Z"/><path class="cls-2" d="M22.89,25.68h0Z"/><polygon class="cls-2" points="23.11 25.52 23.11 25.52 23.1 25.52 23.11 25.52"/><path class="cls-1" d="M20.89,26.93h0Z"/><polygon class="cls-1" points="20.89 26.93 20.89 26.93 20.89 26.93 20.89 26.93"/><polygon class="cls-1" points="20.89 26.93 20.9 26.93 20.9 26.93 20.89 26.93"/><circle class="cls-1" cx="20.91" cy="26.92" transform="translate(-10.17 12.92) rotate(-27.92)"/><path class="cls-1" d="M21,26.87h-.06l0,0h0Z"/><path class="cls-1" d="M21,26.87h0Z"/><path class="cls-1" d="M21.33,26.7l0,0,0,0Z"/><path class="cls-1" d="M21.47,26.62h0Z"/><path class="cls-1" d="M21.55,26.57l0,0h0Z"/><polygon class="cls-1" points="21.82 26.41 21.82 26.41 21.81 26.42 21.81 26.42 21.81 26.41 21.82 26.41"/><path class="cls-1" d="M21.91,26.35h0Z"/><path class="cls-1" d="M22,26.31h0Z"/><path class="cls-1" d="M22.5,26l0,0h0l0,0Z"/><path class="cls-1" d="M22.64,25.87h0Z"/><path class="cls-1" d="M22.89,25.68h0Z"/><path class="cls-1" d="M23.12,25.51h0Z"/><path class="cls-3" d="M20.89,26.93h0Z"/><circle class="cls-3" cx="20.91" cy="26.92" transform="translate(-10.17 12.92) rotate(-27.92)"/><path class="cls-3" d="M21,26.9h0Z"/><path class="cls-3" d="M21.55,26.57l0,0h0Z"/><path class="cls-3" d="M21.92,26.35h0Z"/><path class="cls-3" d="M22,26.31h0Z"/><path class="cls-3" d="M22.27,26.13h0Z"/><path class="cls-3" d="M22.64,25.87h0Z"/><path class="cls-3" d="M23.19,25.46h0Z"/><polygon class="cls-3" points="23.22 25.43 23.21 25.43 23.22 25.43 23.22 25.43"/><path class="cls-1" d="M16.55,28.33h0Zm5.32-2h0ZM18.79,27.8h0Zm-.88.25h0Zm0,0h0Zm-.11,0h0Zm0,0h0Zm-.31.09h0Zm-.87.16h0Z"/><polygon class="cls-1" points="20.89 26.93 20.89 26.93 20.89 26.93 20.89 26.93"/><polygon class="cls-1" points="20.89 26.93 20.9 26.93 20.9 26.93 20.89 26.93"/><path class="cls-1" d="M21,26.87h-.06l0,0h0Z"/><circle class="cls-3" cx="20.91" cy="26.92" transform="translate(-10.17 12.92) rotate(-27.92)"/><path class="cls-3" d="M21,26.9h0Z"/><path class="cls-3" d="M21.33,26.7l0,0,0,0Z"/><path class="cls-3" d="M21.47,26.62h0Z"/><path class="cls-3" d="M22,26.31s0,0,0,0h0v0h0v0H22Z"/><path class="cls-3" d="M22.5,26l0,0h0l0,0Z"/><path class="cls-3" d="M22.64,25.87h0Z"/><polygon class="cls-3" points="23.11 25.52 23.11 25.52 23.1 25.52 23.11 25.52"/><path class="cls-3" d="M23.19,25.46h0Z"/><path class="cls-1" d="M8.67,20.21,4.54,24.31a14,14,0,0,1-4.1-9.87q0-.17,0-.35c0-.09,0-.18,0-.26v-.28l0-.22v-.14l0-.17v0l0-.15,0-.15,0-.29,0-.14A14,14,0,0,1,3,6.41,14.26,14.26,0,0,1,4.56,4.54l4,4a8.31,8.31,0,0,0,.06,11.64Z"/><path class="cls-3" d="M21.67,2.37a14,14,0,0,0-7.18-2,13.87,13.87,0,0,0-6.08,1.4A14.27,14.27,0,0,0,3,6.41L7.5,10A8.31,8.31,0,0,1,18.78,7.2a2.82,2.82,0,0,0,3.43-.41h0A2.81,2.81,0,0,0,21.67,2.37Z"/><path class="cls-2" d="M14.55,28.5a14.14,14.14,0,0,1-10-4.08l4.13-4.09a8.31,8.31,0,0,0,10.17,1.37,2.82,2.82,0,0,1,3.43.41h0a2.81,2.81,0,0,1-.54,4.42A14,14,0,0,1,14.55,28.5Z"/><path class="cls-3" d="M14.53,8.5a5.88,5.88,0,1,0,5.88,5.88A5.88,5.88,0,0,0,14.53,8.5Zm.06,8.74a2.87,2.87,0,1,1,2.74-2.87A2.81,2.81,0,0,1,14.59,17.23Z"/><path class="cls-4" d="M22.68,21.76l-.35.35.35-.36a3.33,3.33,0,0,0-4-.49A7.85,7.85,0,1,1,10.71,7.71a7.73,7.73,0,0,1,2-.8,7.89,7.89,0,0,1,5.91.83,3.33,3.33,0,0,0,4-.49A3.31,3.31,0,0,0,22,2a14.56,14.56,0,0,0-7.44-2A14.29,14.29,0,0,0,8.25,1.45a14.66,14.66,0,0,0-1.8,1A14.75,14.75,0,0,0,2.64,6.23a14.54,14.54,0,0,0-2.46,6L0,14.54A14.44,14.44,0,0,0,4.24,24.77,14.7,14.7,0,0,0,14.61,29,14.55,14.55,0,0,0,22,27a3.31,3.31,0,0,0,.64-5.2Zm0,2.63a2.3,2.3,0,0,1-1.12,1.71A13.55,13.55,0,0,1,14.61,28,13.69,13.69,0,0,1,5,24.06a13.45,13.45,0,0,1-4-9.52l.17-2.11A13.54,13.54,0,0,1,3.46,6.81,13.73,13.73,0,0,1,8.69,2.35,13.29,13.29,0,0,1,14.54,1a13.55,13.55,0,0,1,6.92,1.9,2.31,2.31,0,0,1,.44,3.63,2.33,2.33,0,0,1-2.82.34,8.91,8.91,0,0,0-6.67-.94,8.74,8.74,0,0,0-2.22.91,8.86,8.86,0,0,0-3.07,3,8.86,8.86,0,0,0,12,12.3,2.34,2.34,0,0,1,2.83.34A2.3,2.3,0,0,1,22.64,24.39Z"/><path class="cls-4" d="M14.59,8.11A6.38,6.38,0,1,0,21,14.49,6.39,6.39,0,0,0,14.59,8.11Zm0,11.76A5.38,5.38,0,1,1,20,14.49,5.39,5.39,0,0,1,14.59,19.87Z"/><path class="cls-4" d="M14.65,11.11a3.37,3.37,0,1,0,3.24,3.37A3.31,3.31,0,0,0,14.65,11.11Zm0,5.73a2.37,2.37,0,1,1,2.24-2.37A2.31,2.31,0,0,1,14.65,16.84Z"/></g></g></svg>