<svg xmlns="http://www.w3.org/2000/svg" viewBox="0 0 28 16.65"><defs><style>.cls-1{fill:#161a1e;}.cls-2{fill:#5a4291;}.cls-3{fill:#492ecf;}.cls-4{fill:#655bab;}</style></defs><title>iconColor_Teach</title><g id="Layer_2" data-name="Layer 2"><g id="Layer_1-2" data-name="Layer 1"><path class="cls-1" d="M27.56,4.89a3.11,3.11,0,0,0-1.05-.63L17.28.49a8.23,8.23,0,0,0-3-.49,8.37,8.37,0,0,0-3,.49L2.14,4.26a3.09,3.09,0,0,0-1,.63,1.43,1.43,0,0,0-.48.88l0,0V10A1.28,1.28,0,0,0,0,11a1.19,1.19,0,0,0,1.19,1.18A1.21,1.21,0,0,0,2.41,11a1.28,1.28,0,0,0-.57-1V7.34c0,.05.14.1.28.16L5.65,8.93V13a2.22,2.22,0,0,0,.87,1.6,5.85,5.85,0,0,0,1.92,1.08,17.15,17.15,0,0,0,5.88.93,17.19,17.19,0,0,0,5.87-.93A5.34,5.34,0,0,0,22,14.64,2.07,2.07,0,0,0,22.76,13V8.93L26.43,7.5a3.31,3.31,0,0,0,1.09-.62,1.39,1.39,0,0,0,.48-1A1.35,1.35,0,0,0,27.56,4.89Z"/><path class="cls-2" d="M1.56,11.39a.5.5,0,1,1-.35-.86h.12a.5.5,0,0,1,.37.37A.5.5,0,0,1,1.56,11.39Z"/><path class="cls-3" d="M21.81,13a1.15,1.15,0,0,1-.46.76,5.08,5.08,0,0,1-1.55.85,16.15,16.15,0,0,1-5.47.86,16.16,16.16,0,0,1-5.48-.86,4.7,4.7,0,0,1-1.51-.85A1.09,1.09,0,0,1,6.91,13V9.5l4.47,1.68a8.27,8.27,0,0,0,3,.61,8.43,8.43,0,0,0,3-.61L21.81,9.5Z"/><path class="cls-4" d="M26.76,6.06a2.16,2.16,0,0,1-.66.38L22,8l-.1,0h0l-5.09,2a4,4,0,0,1-.53.18,8,8,0,0,1-2,.23c-.25,0-.49,0-.7,0l-.68-.07a5,5,0,0,1-.62-.12l-.14,0-.15,0-.14-.05,0,0h-.13L6.53,8V8l-4-1.58a1.83,1.83,0,0,1-.63-.38.25.25,0,0,1-.08-.18V5.73h0a2.28,2.28,0,0,1,.67-.4l9.23-3.76a7.39,7.39,0,0,1,2.55-.4,7.36,7.36,0,0,1,2.54.4l9.22,3.76a2.19,2.19,0,0,1,.67.41h0a.35.35,0,0,1,.12.16A.38.38,0,0,1,26.76,6.06Z"/></g></g></svg>