<svg xmlns="http://www.w3.org/2000/svg" viewBox="0 0 28 23.2"><defs><style>.cls-1{fill:#161a1e;}.cls-2{fill:#4dbfa7;}.cls-3{fill:#644c78;}</style></defs><title>iconColor_Team</title><g id="Layer_2" data-name="Layer 2"><g id="Layer_1-2" data-name="Layer 1"><path class="cls-1" d="M14.47,8.79a4.38,4.38,0,0,0,4.39-4.39,4.39,4.39,0,1,0-7.51,3.11A4.37,4.37,0,0,0,14.47,8.79Z"/><path class="cls-2" d="M12.33,2.2a3,3,0,1,1-.87,2.13A3,3,0,0,1,12.33,2.2Z"/><path class="cls-1" d="M3.77,9.54a3.16,3.16,0,0,0,1,.68,3.12,3.12,0,0,0,2.44,0A3.18,3.18,0,0,0,8.88,8.54a3.11,3.11,0,0,0,0-2.44A3.18,3.18,0,0,0,7.21,4.43a3.11,3.11,0,0,0-2.44,0A3.18,3.18,0,0,0,3.1,6.1a3.11,3.11,0,0,0,0,2.44A3.15,3.15,0,0,0,3.77,9.54Z"/><path class="cls-2" d="M4.75,6.08a1.74,1.74,0,1,1-.52,1.24A1.74,1.74,0,0,1,4.75,6.08Z"/><path class="cls-1" d="M20.77,9.54a3.16,3.16,0,0,0,1,.68,3.12,3.12,0,0,0,2.44,0,3.18,3.18,0,0,0,1.67-1.67,3.11,3.11,0,0,0,0-2.44,3.18,3.18,0,0,0-1.67-1.67,3.11,3.11,0,0,0-2.44,0A3.18,3.18,0,0,0,20.1,6.1a3.11,3.11,0,0,0,0,2.44A3.14,3.14,0,0,0,20.77,9.54Z"/><path class="cls-2" d="M21.75,6.08a1.74,1.74,0,1,1-.52,1.24A1.74,1.74,0,0,1,21.75,6.08Z"/><path class="cls-1" d="M24.9,11.32H21.17s0-.06,0-.11a6,6,0,0,0-3.87-1.59H11.66a4.59,4.59,0,0,0-3.6,1.55v.05l-.26.09H4.08a3.83,3.83,0,0,0-2.92,1.11A3.05,3.05,0,0,0,0,14.66V17.8a3.21,3.21,0,0,0,2.85,2.86H5.94v1.29a1.85,1.85,0,0,0,1.3,1.26H21.81c.19,0,.09-.27.18-.45s.07-.54.07-.81V20.66h4.07c.6,0,.87-.37,1.29-.84a2.56,2.56,0,0,0,.59-2V14.66C28,12.64,26.93,11.32,24.9,11.32Z"/><path class="cls-3" d="M6.45,13.38c-.2.43-.51.69-.51,1.22V19H3.45C2.61,19,1.27,18,1.27,17.2V14.66c0-.59.55-.94.94-1.33A3.61,3.61,0,0,1,4.08,13H6.8A.6.6,0,0,0,6.45,13.38Z"/><path class="cls-3" d="M20.36,21.51H7.64V14.66a4,4,0,0,1,1-2.4c.08-.08.19,0,.22-.11a3.84,3.84,0,0,1,2.71-.83h5.67c2.05,0,3.09,1.21,3.09,3.28Z"/><path class="cls-3" d="M26.73,17.2a2.37,2.37,0,0,1-.24,1.23,1.4,1.4,0,0,1-1,.53H22.06V14.6c0-.7.36-1.16.13-1.58H24.9c1.2,0,1.83.44,1.83,1.64Z"/><path class="cls-1" d="M21.21,11.18l0,0h0Z"/></g></g></svg>