<svg xmlns="http://www.w3.org/2000/svg" viewBox="0 0 171.34 60.07"><defs><style>.cls-1,.cls-2{fill:#e4e6ed;}.cls-2{font-size:29.26px;font-family:Larsseit-Bold, Larsseit;font-weight:700;letter-spacing:-0.06em;}.cls-3{letter-spacing:-0.04em;}.cls-4{letter-spacing:-0.05em;}.cls-5{letter-spacing:-0.05em;}</style></defs><title>blockLG</title><g id="Layer_2" data-name="Layer 2"><g id="Layer_1-2" data-name="Layer 1"><path class="cls-1" d="M13.12,39.49,6.54,46A22.34,22.34,0,0,1,0,30.27q0-.28,0-.55c0-.14,0-.28,0-.42s0-.11,0-.16v-.06c0-.07,0-.15,0-.22s0-.23,0-.35l0-.23,0-.27v0l0-.25,0-.24q0-.24.06-.47l0-.23a22.28,22.28,0,0,1,3.79-9.31,22.75,22.75,0,0,1,2.51-3L13,20.91a13.26,13.26,0,0,0,.1,18.58Z"/><path class="cls-1" d="M33.86,11A22.41,22.41,0,0,0,22.41,7.86a22.13,22.13,0,0,0-9.7,2.23,22.77,22.77,0,0,0-8.65,7.37l7.19,5.7a13.26,13.26,0,0,1,18-4.44,4.51,4.51,0,0,0,5.47-.66h0A4.49,4.49,0,0,0,33.86,11Z"/><path class="cls-1" d="M22.51,52.54A22.56,22.56,0,0,1,6.54,46l6.58-6.53a13.26,13.26,0,0,0,16.23,2.19,4.51,4.51,0,0,1,5.47.66h0a4.49,4.49,0,0,1-.87,7A22.42,22.42,0,0,1,22.51,52.54Z"/><path class="cls-1" d="M22.48,20.8a9.38,9.38,0,1,0,9.38,9.38A9.38,9.38,0,0,0,22.48,20.8Zm.1,13.94a4.58,4.58,0,1,1,4.37-4.57A4.48,4.48,0,0,1,22.58,34.74Z"/><text></text><g id="_Group_" data-name="&lt;Group&gt;"><g id="_Group_2" data-name="&lt;Group&gt;"><text class="cls-2" transform="translate(49.34 24.88)">c<tspan class="cls-3" x="14.54" y="0">ha</tspan><tspan class="cls-4" x="46.18" y="0">r</tspan><tspan class="cls-5" x="55.37" y="0">acter</tspan><tspan class="cls-5"><tspan x="0" y="26.3">wise</tspan></tspan></text></g></g></g></g></svg>